# AST/ASF file generated using VICON BodyLanguage
# -----------------------------------------------
:version 1.10
:name VICON
:units
  mass 1.0
  length 0.45
  angle deg
:documentation
   .ast/.asf automatically generated from VICON data using
   VICON BodyBuilder and BodyLanguage model FoxedUp or BRILLIANT.MOD
:root
   order TX TY TZ RX RY RZ
   axis XYZ
   position 0 0 0  
   orientation 0 0 0 
:bonedata
  begin
     id 1 
     name lhipjoint
     direction 0.623415 -0.642378 0.445763 
     length 2.49859 
     axis 0 0 0  XYZ
  end
  begin
     id 2 
     name lfemur
     direction 0.34202 -0.939693 0  
     length 6.69689  
     axis 0 0 20  XYZ
    dof rx ry rz
    limits (-160.0 20.0)
           (-70.0 70.0)
           (-60.0 70.0)
  end
  begin
     id 3 
     name ltibia
     direction 0.34202 -0.939693 0   
     length 7.37574   
     axis 0 0 20   XYZ
    dof rx
    limits (-10.0 170.0)
  end
  begin
     id 4 
     name lfoot
     direction 0.084323 -0.231675 0.969132   
     length 2.09111   
     axis -90 7.62852e-016 20   XYZ
    dof rx rz
    limits (-45.0 90.0)
           (-70.0 20.0)
  end
  begin
     id 5 
     name ltoes
     direction 1.5357e-011 -4.21957e-011 1   
     length 1.04989   
     axis -90 7.62852e-016 20   XYZ
    dof rx
    limits (-90.0 20.0)
  end
  begin
     id 6 
     name rhipjoint
     direction -0.605402 -0.653903 0.45376   
     length 2.45455  
     axis 0 0 0  XYZ 
  end
  begin
     id 7 
     name rfemur
     direction -0.34202 -0.939693 0   
     length 6.64523   
     axis 0 0 -20   XYZ
    dof rx ry rz
    limits (-160.0 20.0)
           (-70.0 70.0)
           (-70.0 60.0)
  end
  begin
     id 8 
     name rtibia
     direction -0.34202 -0.939693 0   
     length 7.3339   
     axis 0 0 -20   XYZ
    dof rx
    limits (-10.0 170.0)
 end
 begin
     id 9 
     name rfoot
     direction -0.120854 -0.332043 0.93549   
     length 2.23135  
     axis -90 -7.62852e-016 -20   XYZ
    dof rx rz
    limits (-45.0 90.0)
           (-20.0 70.0)
  end
  begin
     id 10 
     name rtoes
     direction -1.53563e-011 -4.21914e-011 1   
     length 1.10614   
     axis -90 -7.62852e-016 -20   XYZ
    dof rx
    limits (-90.0 20.0)
  end
  begin
     id 11 
     name lowerback
     direction 0.0319682 0.998615 -0.0417941   
     length 2.02718   
     axis 0 0 0   XYZ
    dof rx ry rz
    limits (-20.0 45.0)
           (-30.0 30.0)
           (-30.0 30.0)
  end
  begin
     id 12 
     name upperback
     direction 7.63181e-005 0.995808 0.0914691   
     length 1.97539   
     axis 0 0 0   XYZ
    dof rx ry rz
    limits (-20.0 45.0)
           (-30.0 30.0)
           (-30.0 30.0)
  end
  begin
     id 13 
     name thorax
     direction -0.016423 0.993627 0.111514   
     length 2.00349   
     axis 0 0 0   XYZ
    dof rx ry rz
    limits (-20.0 45.0)
           (-30.0 30.0)
           (-30.0 30.0)
  end
  begin
     id 14 
     name lowerneck
     direction -0.174763 0.981668 -0.0760716   
     length 1.71436   
     axis 0 0 0   XYZ
    dof rx ry rz
    limits (-20.0 45.0)
           (-30.0 30.0)
           (-30.0 30.0)
  end
  begin
     id 15 
     name upperneck
     direction 0.345458 0.934587 -0.0848868   
     length 1.72805   
     axis 0 0 0   XYZ
    dof rx ry rz
    limits (-20.0 45.0)
           (-30.0 30.0)
           (-30.0 30.0)
  end
  begin
     id 16
     name head
     direction 0.13001 0.989848 -0.0574291  
     length 1.767  
     axis 0 0 0   XYZ
    dof rx ry rz
    limits (-20.0 45.0)
           (-30.0 30.0)
           (-30.0 30.0)
  end
  begin
     id 17 
     name lclavicle
     direction 0.952951 0.290122 0.0878234  
     length 3.54654  
     axis 0 0 0   XYZ
    dof ry rz
    limits (-20.0 10.0)
           (0.0 20.0)
  end
  begin
     id 18 
     name lhumerus
     direction 1 -4.48957e-011 -4.56525e-028   
     length 5.19807   
     axis 180 -30 -90   XYZ
    dof rx ry rz
    limits (-60.0 90.0)
           (-90.0 90.0)
           (-90.0 90.0)
  end
  begin
     id 19
     name lradius
     direction 1 -4.48979e-011 -2.0317e-027   
     length 3.0937   
     axis 180 -30 -90   XYZ
    dof rx
    limits (-10.0 170.0)
  end
  begin
     id 20
     name lwrist
     direction 1 -4.48953e-011 -3.05809e-027   
     length 1.54685   
     axis 8.48514e-016 90 90   XYZ
    dof ry
    limits (-180.0 0.0)
 end
  begin
     id 21 
     name lhand
     direction 1 -4.48952e-011 -6.11639e-027   
     length 0.672632   
     axis 3.9013e-015 90 90   XYZ
    dof rx rz
    limits (-90.0 90.0)
           (-45.0 45.0)
  end
  begin
     id 22 
     name lfingers
     direction 1 -4.48925e-011 -1.22426e-026   
     length 0.542293   
     axis 7.80276e-015 90 90   XYZ
    dof rx
    limits (0.0 90.0)
  end
  begin
     id 23
     name lthumb
     direction 0.707107 -6.3486e-011 0.707107   
     length 0.778628   
     axis -90 45 5.37419e-014   XYZ
    dof rx rz
    limits (-45.0 45.0)
           (-45.0 45.0)
  end
  begin
     id 24 
     name rclavicle
     direction -0.960732 0.273675 -0.0457849   
     length 3.52079  
     axis 0 0 0   XYZ 
    dof ry rz
    limits (-10.0 20.0)
           (-20.0 0.0)
  end
  begin
     id 25 
     name rhumerus
     direction -1 -4.48976e-011 -1.63613e-027  
     length 5.45222   
     axis 180 30 90   XYZ
    dof rx ry rz
    limits (-90.0 60.0)
           (-90.0 90.0)
           (-90.0 90.0)
  end
  begin
     id 26 
     name rradius
     direction -1 -4.48957e-011 -7.00033e-028   
     length 3.01284   
     axis 180 30 90   XYZ
    dof rx
    limits (-10.0 170.0)
  end
  begin
     id 27 
     name rwrist
     direction -1 -4.48983e-011 -3.05543e-027   
     length 1.50642   
     axis 8.48514e-016 -90 -90   XYZ
    dof ry
    limits (-180.0 0.0)
  end
  begin
     id 28
     name rhand
     direction -1 -4.48984e-011 -6.11072e-027   
     length 0.622296   
     axis 3.9013e-015 -90 -90   XYZ
    dof rx rz
    limits (-90.0 90.0)
           (-45.0 45.0)
  end
  begin
     id 29
     name rfingers
     direction -1 -4.48865e-011 -1.22637e-026   
     length 0.501711   
     axis 7.80276e-015 -90 -90   XYZ
    dof rx
    limits (0.0 90.0)
  end
  begin
     id 30
     name rthumb
     direction -0.707107 -6.34932e-011 0.707107   
     length 0.72036   
     axis -90 -45 -5.37419e-014   XYZ
    dof rx rz
    limits (-45.0 45.0)
           (-45.0 45.0)
  end
:hierarchy
  begin
    root lhipjoint rhipjoint lowerback
    lhipjoint lfemur
    lfemur ltibia
    ltibia lfoot
    lfoot ltoes
    rhipjoint rfemur
    rfemur rtibia
    rtibia rfoot
    rfoot rtoes
    lowerback upperback
    upperback thorax
    thorax lowerneck lclavicle rclavicle
    lowerneck upperneck
    upperneck head
    lclavicle lhumerus
    lhumerus lradius
    lradius lwrist
    lwrist lhand lthumb
    lhand lfingers
    rclavicle rhumerus
    rhumerus rradius
    rradius rwrist
    rwrist rhand rthumb
    rhand rfingers
  end

#!OML:ASF H:\Not Pregnant\Project 1\Capture day 1\Session 1\non-pregnant.ASF
:FULLY-SPECIFIED
:DEGREES
66
root 6.01144 15.043 29.8586 21.0469 -62.8958 -8.07294
lowerback 6.83951 0.683227 4.24247
upperback -8.59559 1.44986 0.815381
thorax -13.1467 0.273702 -1.73012
lowerneck 18.8472 -11.519 -30.9298
upperneck -6.54072 -22.728 41.4475
head 4.52632 -13.8177 19.782
rclavicle -8.39399e-015 -1.64991e-014
rhumerus -16.3172 6.19529 -81.7149
rradius 95.8733
rwrist 33.4669
rhand 5.14147 8.4027
rfingers 7.12502
rthumb 30.5049 -19.092
lclavicle -8.39399e-015 -1.64991e-014
lhumerus -25.7423 -8.24499 74.7486
lradius 96.4328
lwrist 6.45426
lhand 2.95122 -12.793
lfingers 7.12502
lthumb 28.4139 15.0701
rfemur -38.7939 0.62019 22.8833
rtibia 53.7958
rfoot -26.48 -3.64081
rtoes -13.2795
lfemur -41.613 3.20726 -17.3175
ltibia 53.9416
lfoot -24.2249 1.98342
ltoes -14.0792
67
root 6.01233 15.0378 29.8586 21.0377 -62.9221 -8.0798
lowerback 6.84878 0.685001 4.24718
upperback -8.58769 1.45209 0.802756
thorax -13.1426 0.273856 -1.74719
lowerneck 18.8206 -11.5145 -30.9218
upperneck -6.51042 -22.7172 41.4294
head 4.52976 -13.808 19.771
rclavicle -4.30897e-014 -1.25731e-014
rhumerus -16.3046 6.25603 -81.714
rradius 95.8604
rwrist 33.4785
rhand 5.13569 8.4013
rfingers 7.12502
rthumb 30.4994 -19.0944
lclavicle -4.30897e-014 -1.25731e-014
lhumerus -25.7446 -8.21904 74.7085
lradius 96.4589
lwrist 6.4644
lhand 2.9686 -12.7797
lfingers 7.12502
lthumb 28.4305 15.0805
rfemur -38.8302 0.61137 22.8817
rtibia 53.8805
rfoot -26.516 -3.62703
rtoes -13.3157
lfemur -41.6427 3.22841 -17.3255
ltibia 54.0283
lfoot -24.2549 2.00976
ltoes -14.1364
68
root 6.01322 15.0326 29.8589 21.0232 -62.9494 -8.08197
lowerback 6.85633 0.684138 4.24716
upperback -8.57907 1.45037 0.793814
thorax -13.1371 0.272862 -1.75683
lowerneck 18.7917 -11.5064 -30.9198
upperneck -6.47568 -22.7023 41.4064
head 4.53289 -13.7953 19.7595
rclavicle -4.04566e-014 -1.69961e-014
rhumerus -16.2958 6.32513 -81.7099
rradius 95.8463
rwrist 33.484
rhand 5.14002 8.40953
rfingers 7.12502
rthumb 30.5035 -19.0854
lclavicle -4.04566e-014 -1.69961e-014
lhumerus -25.755 -8.16977 74.679
lradius 96.4859
lwrist 6.47231
lhand 3.00409 -12.7713
lfingers 7.12502
lthumb 28.4645 15.0833
rfemur -38.8677 0.589556 22.8791
rtibia 53.9692
rfoot -26.5566 -3.60435
rtoes -13.3589
lfemur -41.6712 3.24287 -17.3351
ltibia 54.1168
lfoot -24.2839 2.04091
ltoes -14.1779
69
root 6.01419 15.0272 29.8589 21.0198 -62.9724 -8.09798
lowerback 6.86634 0.68255 4.25122
upperback -8.57093 1.44882 0.78917
thorax -13.1337 0.271745 -1.76411
lowerneck 18.7661 -11.4945 -30.9262
upperneck -6.43924 -22.6855 41.3853
head 4.53686 -13.7822 19.7521
rclavicle 2.75953e-014 1.83876e-014
rhumerus -16.2919 6.3929 -81.7025
rradius 95.8292
rwrist 33.4887
rhand 5.15022 8.42101
rfingers 7.12502
rthumb 30.5132 -19.0721
lclavicle 2.75953e-014 1.83876e-014
lhumerus -25.7712 -8.10704 74.6649
lradius 96.5095
lwrist 6.4629
lhand 3.05007 -12.7714
lfingers 7.12502
lthumb 28.5084 15.0758
rfemur -38.9049 0.559914 22.8862
rtibia 54.0595
rfoot -26.5993 -3.57039
rtoes -13.3849
lfemur -41.7005 3.25339 -17.3345
ltibia 54.2085
lfoot -24.3134 2.07556
ltoes -14.2166
70
root 6.01522 15.0218 29.8588 20.9999 -62.993 -8.09914
lowerback 6.87904 0.678116 4.24562
upperback -8.5611 1.44234 0.784934
thorax -13.1305 0.2693 -1.76472
lowerneck 18.7378 -11.4806 -30.9354
upperneck -6.39907 -22.667 41.3648
head 4.5421 -13.768 19.7459
rclavicle -8.48345e-014 -1.96548e-014
rhumerus -16.2885 6.46345 -81.6966
rradius 95.8072
rwrist 33.496
rhand 5.15737 8.43181
rfingers 7.12502
rthumb 30.5201 -19.06
lclavicle -8.48345e-014 -1.96548e-014
lhumerus -25.7901 -8.02996 74.6608
lradius 96.532
lwrist 6.44517
lhand 3.10045 -12.7695
lfingers 7.12502
lthumb 28.5565 15.0697
rfemur -38.9401 0.518498 22.889
rtibia 54.1518
rfoot -26.6456 -3.52691
rtoes -13.4051
lfemur -41.7273 3.25773 -17.3385
ltibia 54.3016
lfoot -24.3444 2.11184
ltoes -14.2493
71
root 6.01637 15.0161 29.8584 20.9971 -63.0079 -8.1196
lowerback 6.89314 0.674614 4.24948
upperback -8.55075 1.43849 0.780893
thorax -13.1272 0.267215 -1.77089
lowerneck 18.7103 -11.4677 -30.9392
upperneck -6.35843 -22.6493 41.3463
head 4.54731 -13.7546 19.7397
rclavicle -3.99398e-014 2.67614e-014
rhumerus -16.2862 6.52259 -81.693
rradius 95.7785
rwrist 33.5083
rhand 5.16264 8.44064
rfingers 7.12502
rthumb 30.5251 -19.0503
lclavicle -3.99398e-014 2.67614e-014
lhumerus -25.8075 -7.96094 74.667
lradius 96.5495
lwrist 6.41449
lhand 3.1425 -12.7737
lfingers 7.12502
lthumb 28.5967 15.0587
rfemur -38.9756 0.47422 22.9032
rtibia 54.245
rfoot -26.694 -3.47226
rtoes -13.3965
lfemur -41.7583 3.26514 -17.3309
ltibia 54.3994
lfoot -24.3788 2.13941
ltoes -14.2691
72
root 6.01749 15.0101 29.8579 20.9975 -63.0163 -8.14522
lowerback 6.90596 0.670979 4.25837
upperback -8.53828 1.43479 0.774368
thorax -13.1206 0.264703 -1.78261
lowerneck 18.6811 -11.4586 -30.9335
upperneck -6.31632 -22.6352 41.329
head 4.55359 -13.7431 19.731
rclavicle -6.60765e-015 -1.79155e-014
rhumerus -16.2858 6.57099 -81.6937
rradius 95.7454
rwrist 33.5269
rhand 5.16517 8.44523
rfingers 7.12502
rthumb 30.5275 -19.0452
lclavicle -6.60765e-015 -1.79155e-014
lhumerus -25.8245 -7.90139 74.6848
lradius 96.5655
lwrist 6.36233
lhand 3.1434 -12.7553
lfingers 7.12502
lthumb 28.5976 15.077
rfemur -39.0101 0.424108 22.9225
rtibia 54.3404
rfoot -26.7447 -3.4164
rtoes -13.3884
lfemur -41.7906 3.27462 -17.3203
ltibia 54.5004
lfoot -24.4167 2.16753
ltoes -14.3162
